<svg width="26" height="26" viewBox="0 0 26 26" fill="none" xmlns="http://www.w3.org/2000/svg">
<path d="M24 3.66667C24 2.69421 23.6137 1.76158 22.9261 1.07394C22.2384 0.386309 21.3058 0 20.3333 0H3.66667C2.69421 0 1.76158 0.386309 1.07394 1.07394C0.386309 1.76158 0 2.69421 0 3.66667V20.3333C0 21.3058 0.386309 22.2384 1.07394 22.9261C1.76158 23.6137 2.69421 24 3.66667 24H6.73333C6.59703 23.3275 6.67057 22.6293 6.944 22H3.66667C2.74667 22 2 21.2533 2 20.3333V3.66667C2 2.74667 2.74667 2 3.66667 2H20.3333C21.2533 2 22 2.74667 22 3.66667V20.2773C22.6289 20.0021 23.3276 19.9285 24 20.0667V3.66667ZM5 11.3333H15C15.2534 11.3334 15.4973 11.4297 15.6824 11.6026C15.8675 11.7756 15.9801 12.0124 15.9974 12.2652C16.0146 12.5179 15.9353 12.7679 15.7754 12.9644C15.6155 13.1609 15.387 13.2895 15.136 13.324L15 13.3333H5C4.74664 13.3333 4.50275 13.237 4.31761 13.064C4.13248 12.8911 4.0199 12.6543 4.00263 12.4015C3.98536 12.1487 4.06469 11.8988 4.22458 11.7023C4.38447 11.5057 4.613 11.3772 4.864 11.3427L5 11.3333ZM19 16.6667H5L4.864 16.676C4.613 16.7105 4.38447 16.8391 4.22458 17.0356C4.06469 17.2321 3.98536 17.4821 4.00263 17.7348C4.0199 17.9876 4.13248 18.2244 4.31761 18.3974C4.50275 18.5703 4.74664 18.6666 5 18.6667H19L19.136 18.6573C19.387 18.6228 19.6155 18.4943 19.7754 18.2977C19.9353 18.1012 20.0146 17.8513 19.9974 17.5985C19.9801 17.3457 19.8675 17.1089 19.6824 16.936C19.4973 16.763 19.2534 16.6667 19 16.6667V16.6667ZM5 6H19C19.2534 6.00008 19.4973 6.09633 19.6824 6.2693C19.8675 6.44227 19.9801 6.67907 19.9974 6.93184C20.0146 7.18462 19.9353 7.43452 19.7754 7.63107C19.6155 7.82761 19.387 7.95613 19.136 7.99067L19 8H5C4.74664 7.99992 4.50275 7.90367 4.31761 7.7307C4.13248 7.55773 4.0199 7.32094 4.00263 7.06816C3.98536 6.81538 4.06469 6.56548 4.22458 6.36893C4.38447 6.17239 4.613 6.04387 4.864 6.00933L5 6ZM12 23.3333C12 23.8638 11.7893 24.3725 11.4142 24.7475C11.0391 25.1226 10.5304 25.3333 10 25.3333C9.46957 25.3333 8.96086 25.1226 8.58579 24.7475C8.21071 24.3725 8 23.8638 8 23.3333C8 22.8029 8.21071 22.2942 8.58579 21.9191C8.96086 21.544 9.46957 21.3333 10 21.3333C10.5304 21.3333 11.0391 21.544 11.4142 21.9191C11.7893 22.2942 12 22.8029 12 23.3333ZM16.6667 25.3333C17.1971 25.3333 17.7058 25.1226 18.0809 24.7475C18.456 24.3725 18.6667 23.8638 18.6667 23.3333C18.6667 22.8029 18.456 22.2942 18.0809 21.9191C17.7058 21.544 17.1971 21.3333 16.6667 21.3333C16.1362 21.3333 15.6275 21.544 15.2525 21.9191C14.8774 22.2942 14.6667 22.8029 14.6667 23.3333C14.6667 23.8638 14.8774 24.3725 15.2525 24.7475C15.6275 25.1226 16.1362 25.3333 16.6667 25.3333V25.3333ZM23.3333 25.3333C23.8638 25.3333 24.3725 25.1226 24.7475 24.7475C25.1226 24.3725 25.3333 23.8638 25.3333 23.3333C25.3333 22.8029 25.1226 22.2942 24.7475 21.9191C24.3725 21.544 23.8638 21.3333 23.3333 21.3333C22.8029 21.3333 22.2942 21.544 21.9191 21.9191C21.544 22.2942 21.3333 22.8029 21.3333 23.3333C21.3333 23.8638 21.544 24.3725 21.9191 24.7475C22.2942 25.1226 22.8029 25.3333 23.3333 25.3333Z" fill="#0075DE"/>
</svg>
